<svg width="32" height="32" viewBox="0 0 32 32" fill="none" xmlns="http://www.w3.org/2000/svg">
<rect x="-0.00012207" width="32" height="32" rx="10" fill="#FF6488"/>
<path d="M7.36332 16.6075C6.99256 15.5337 6.90557 14.4974 7.10233 13.4985C7.31421 12.4943 7.72226 11.6171 8.32648 10.8668C8.95104 10.1265 9.69436 9.60745 10.5564 9.3098C11.2521 9.0696 11.9544 8.971 12.6632 9.01401C13.3773 9.07214 14.0677 9.28232 14.7344 9.64456C15.4215 10.0167 16.0599 10.5665 16.6496 11.2938L15.81 12.9802C15.1764 11.9294 14.4787 11.2817 13.7171 11.0368C12.9759 10.8019 12.2271 10.815 11.4709 11.076C10.866 11.2849 10.3333 11.6296 9.87295 12.1102C9.41259 12.5908 9.1103 13.186 8.96611 13.896C8.82714 14.621 8.91169 15.4297 9.21979 16.322C9.52788 17.2143 9.95561 17.9384 10.503 18.4942C11.0503 19.0499 11.6746 19.4607 12.3757 19.7264C13.0768 19.9922 13.8097 20.1538 14.5744 20.2114C15.339 20.269 16.0799 20.2332 16.7971 20.1041C16.989 20.0717 17.1588 20.0977 17.3064 20.1822C17.4541 20.2666 17.5723 20.4374 17.661 20.6945C17.7498 20.9516 17.7144 21.1923 17.5549 21.4167C17.4006 21.6561 17.172 21.8028 16.869 21.8566C15.9802 22.0281 15.0623 22.0657 14.115 21.9696C13.1678 21.8735 12.2544 21.6303 11.3749 21.24C10.5104 20.8444 9.72756 20.2684 9.02625 19.5118C8.32493 18.7553 7.77062 17.7872 7.36332 16.6075ZM10.4014 24.5975C10.3596 24.4765 10.3381 24.3654 10.3371 24.2643C10.3563 24.173 10.3706 24.0919 10.38 24.0209C10.8421 22.7611 11.2772 21.5699 11.6851 20.4473C12.0983 19.3398 12.542 18.2472 13.0162 17.1694C13.5056 16.0864 14.083 14.9645 14.7486 13.8037C15.1708 13.0655 15.5784 12.3831 15.9714 11.7565C16.3697 11.145 16.7891 10.6194 17.2297 10.1795C17.6702 9.73962 18.1703 9.42308 18.7299 9.22987C19.4558 8.97922 20.1764 8.93355 20.8915 9.09287C21.6067 9.25219 22.2531 9.60452 22.8307 10.1499C23.4135 10.7103 23.8642 11.4519 24.1827 12.3744C24.5535 13.4482 24.6728 14.4311 24.5407 15.3231C24.4237 16.2098 24.1274 16.8961 23.6519 17.3818C23.642 17.4022 23.5818 17.4484 23.4713 17.5204C23.3811 17.6023 23.2679 17.6668 23.1318 17.7138C22.9503 17.7764 22.7503 17.7609 22.5317 17.6671C22.3335 17.5832 22.19 17.4127 22.1012 17.1556C22.049 17.0043 22.0348 16.8653 22.0588 16.7386C22.0978 16.6066 22.1447 16.4973 22.1995 16.4107C22.5336 15.9568 22.7483 15.451 22.8435 14.8934C22.9388 14.3358 22.8558 13.6789 22.5947 12.9227C22.3023 12.0758 21.8687 11.5061 21.2937 11.2137C20.7188 10.9214 20.0987 10.89 19.4332 11.1198C18.9795 11.2765 18.5425 11.5797 18.1223 12.0295C17.7224 12.4891 17.3435 13.0093 16.9854 13.59C16.6476 14.1805 16.3273 14.7482 16.0245 15.2928C15.5976 16.0665 15.1838 16.878 14.7831 17.7273C14.3974 18.5714 14.0345 19.4076 13.6942 20.236C13.3691 21.0592 13.0687 21.8315 12.793 22.553C12.5378 23.2844 12.3218 23.909 12.1452 24.4271C12.0712 24.6049 11.9842 24.745 11.8841 24.8473C11.784 24.9496 11.6507 25.0294 11.4844 25.0869C11.3331 25.1391 11.1357 25.1311 10.8921 25.0628C10.6537 25.0097 10.4901 24.8546 10.4014 24.5975Z" fill="#9C0024"/>
</svg>
