<svg width="100" height="100" viewBox="0 0 100 100" fill="none" xmlns="http://www.w3.org/2000/svg">
<g clip-path="url(#clip0_422_51)">
<path d="M50 100C77.6142 100 100 77.6142 100 50C100 22.3858 77.6142 0 50 0C22.3858 0 0 22.3858 0 50C0 77.6142 22.3858 100 50 100Z" fill="#FFE7ED"/>
<g filter="url(#filter0_d_422_51)">
<path d="M49.9163 90C72.0077 90 89.9163 72.0914 89.9163 50C89.9163 27.9086 72.0077 10 49.9163 10C27.8249 10 9.91626 27.9086 9.91626 50C9.91626 72.0914 27.8249 90 49.9163 90Z" fill="#FF6488"/>
</g>
<path d="M55.6808 51.8449L36.8516 70.8332C34.5695 73.1345 34.5699 76.8652 36.8516 79.1666C39.1336 81.4675 42.8331 81.4675 45.1151 79.1666L69.9057 54.1666C72.1878 51.8656 72.1874 48.1345 69.9057 45.8332L45.1151 20.8332C42.8331 18.5322 39.1336 18.5322 36.8516 20.8332C34.5695 23.1341 34.5699 26.8652 36.8516 29.1666L55.6808 48.1548C56.6914 49.1738 56.6914 50.8259 55.6808 51.8449Z" fill="#FFE7ED"/>
</g>
<defs>
<filter id="filter0_d_422_51" x="5.91626" y="6" width="90" height="90" filterUnits="userSpaceOnUse" color-interpolation-filters="sRGB">
<feFlood flood-opacity="0" result="BackgroundImageFix"/>
<feColorMatrix in="SourceAlpha" type="matrix" values="0 0 0 0 0 0 0 0 0 0 0 0 0 0 0 0 0 0 127 0" result="hardAlpha"/>
<feOffset dx="1" dy="1"/>
<feGaussianBlur stdDeviation="2.5"/>
<feComposite in2="hardAlpha" operator="out"/>
<feColorMatrix type="matrix" values="0 0 0 0 0 0 0 0 0 0 0 0 0 0 0 0 0 0 0.25 0"/>
<feBlend mode="normal" in2="BackgroundImageFix" result="effect1_dropShadow_422_51"/>
<feBlend mode="normal" in="SourceGraphic" in2="effect1_dropShadow_422_51" result="shape"/>
</filter>
<clipPath id="clip0_422_51">
<rect width="99.1622" height="100" fill="white"/>
</clipPath>
</defs>
</svg>
