<svg width="692" height="681" viewBox="0 0 692 681" fill="none" xmlns="http://www.w3.org/2000/svg">
<g filter="url(#filter0_d_41_24)">
<path d="M4.83282 274.076L409.158 15.9734C471.256 36.3121 528.175 69.9389 575.955 114.513C623.735 159.087 661.228 213.538 685.823 274.076H4.83282Z" fill="#FFE7ED"/>
<path d="M685.823 273.823H4.83282V676.883H685.823V273.823Z" fill="#FFE7ED"/>
<path d="M685.823 440.886H4.83282V572.679H685.823V440.886Z" fill="#FF96AE"/>
<path d="M441.558 28.7984C445.905 21.8961 451.931 16.2083 459.072 12.2664C466.214 8.32438 474.238 6.25684 482.395 6.25684C490.553 6.25684 498.577 8.32438 505.718 12.2664C512.86 16.2083 518.886 21.8961 523.233 28.7984C542.723 59.5109 562.298 97.9015 564.914 130.892C569.386 188.014 507.877 190.461 488.302 189.955C484.336 189.955 480.539 189.955 476.573 189.955C456.998 190.63 395.489 188.183 399.961 130.892C402.577 97.9015 422.152 59.5109 441.558 28.7984Z" fill="#FF96AE"/>
</g>
<defs>
<filter id="filter0_d_41_24" x="0.832825" y="0.256836" width="690.991" height="680.625" filterUnits="userSpaceOnUse" color-interpolation-filters="sRGB">
<feFlood flood-opacity="0" result="BackgroundImageFix"/>
<feColorMatrix in="SourceAlpha" type="matrix" values="0 0 0 0 0 0 0 0 0 0 0 0 0 0 0 0 0 0 127 0" result="hardAlpha"/>
<feOffset dx="1" dy="-1"/>
<feGaussianBlur stdDeviation="2.5"/>
<feComposite in2="hardAlpha" operator="out"/>
<feColorMatrix type="matrix" values="0 0 0 0 0 0 0 0 0 0 0 0 0 0 0 0 0 0 0.25 0"/>
<feBlend mode="normal" in2="BackgroundImageFix" result="effect1_dropShadow_41_24"/>
<feBlend mode="normal" in="SourceGraphic" in2="effect1_dropShadow_41_24" result="shape"/>
</filter>
</defs>
</svg>
