<svg width="710" height="650" viewBox="0 0 710 650" fill="none" xmlns="http://www.w3.org/2000/svg">
<g filter="url(#filter0_d_179_369)">
<path d="M684.556 211.877V250.178H23.4444V211.877C23.4444 49.1692 180.808 4 354 4C527.192 4 684.556 49.1692 684.556 211.877ZM684.556 436.123V397.822H23.4444V436.123C23.4444 598.831 180.808 644 354 644C527.192 644 684.556 598.831 684.556 436.123Z" fill="#FF4081"/>
<path d="M684.556 324C684.556 337.057 680.458 349.579 673.165 358.811C665.872 368.044 655.981 373.231 645.667 373.231H62.3333C52.0194 373.231 42.1278 368.044 34.8347 358.811C27.5417 349.579 23.4444 337.057 23.4444 324C23.4444 310.943 27.5417 298.421 34.8347 289.189C42.1278 279.956 52.0194 274.769 62.3333 274.769H645.667C655.981 274.769 665.872 279.956 673.165 289.189C680.458 298.421 684.556 310.943 684.556 324Z" fill="#F48FB1"/>
<path d="M704 225.538C704 222.306 703.497 219.105 702.52 216.119C701.543 213.132 700.11 210.419 698.305 208.133C696.499 205.847 694.356 204.034 691.997 202.797C689.637 201.56 687.109 200.923 684.556 200.923H23.4444C20.891 200.923 18.3625 201.56 16.0034 202.797C13.6443 204.034 11.5007 205.847 9.69514 208.133C7.88956 210.419 6.45729 213.132 5.48012 216.119C4.50294 219.105 4 222.306 4 225.538V250.154C4 253.386 4.50294 256.587 5.48012 259.574C6.45729 262.56 7.88956 265.274 9.69514 267.56C11.5007 269.845 13.6443 271.658 16.0034 272.896C18.3625 274.133 20.891 274.769 23.4444 274.769H684.556C689.713 274.769 694.658 272.176 698.305 267.56C701.951 262.943 704 256.682 704 250.154V225.538ZM704 397.846C704 391.318 701.951 385.057 698.305 380.44C694.658 375.824 689.713 373.231 684.556 373.231H23.4444C20.891 373.231 18.3625 373.867 16.0034 375.105C13.6443 376.342 11.5007 378.155 9.69514 380.44C7.88956 382.726 6.45729 385.44 5.48012 388.426C4.50294 391.413 4 394.614 4 397.846V422.462C4 425.694 4.50294 428.895 5.48012 431.881C6.45729 434.868 7.88956 437.581 9.69514 439.867C11.5007 442.153 13.6443 443.966 16.0034 445.203C18.3625 446.44 20.891 447.077 23.4444 447.077H684.556C687.109 447.077 689.637 446.44 691.997 445.203C694.356 443.966 696.499 442.153 698.305 439.867C700.11 437.581 701.543 434.868 702.52 431.881C703.497 428.895 704 425.694 704 422.462V397.846Z" fill="#D81B60"/>
</g>
<defs>
<filter id="filter0_d_179_369" x="0" y="0" width="710" height="650" filterUnits="userSpaceOnUse" color-interpolation-filters="sRGB">
<feFlood flood-opacity="0" result="BackgroundImageFix"/>
<feColorMatrix in="SourceAlpha" type="matrix" values="0 0 0 0 0 0 0 0 0 0 0 0 0 0 0 0 0 0 127 0" result="hardAlpha"/>
<feOffset dx="1" dy="1"/>
<feGaussianBlur stdDeviation="2.5"/>
<feComposite in2="hardAlpha" operator="out"/>
<feColorMatrix type="matrix" values="0 0 0 0 0 0 0 0 0 0 0 0 0 0 0 0 0 0 0.25 0"/>
<feBlend mode="normal" in2="BackgroundImageFix" result="effect1_dropShadow_179_369"/>
<feBlend mode="normal" in="SourceGraphic" in2="effect1_dropShadow_179_369" result="shape"/>
</filter>
</defs>
</svg>
